<svg width="512" height="512" xmlns="http://www.w3.org/2000/svg">
 <title>Drawing</title>

 <g>
  <title>Layer 1</title>
  <g>

   <title>fruit</title>
   <path fill-rule="evenodd" fill="#5e990b" d="m340.4386,149.83369a47.89183,47.89183 0 0 1 13.02002,-15.17485c14.53751,-10.89554 37.78538,-13.05037 55.17576,-9.62086a126.61897,126.61897 0 0 1 41.79154,17.05653c-10.83484,8.68002 -27.31473,16.38884 -45.70666,23.39962a79.27343,79.27343 0 0 1 -42.48959,4.91665l0.54629,0.66769l-0.60699,-0.21245c-8.16407,-2.54938 -16.14604,-5.1898 -23.55137,-8.16407l1.66923,-12.59513l0,-0.27315l0.15175,0z" class="cls-1"/>
   <path fill="#7f573c" fill-rule="evenodd" d="m340.2565,150.13719l0.1821,-0.3642l0,0.21245l-1.66923,12.59513c-4.52211,-1.82098 -9.10491,-4.03651 -13.32352,-5.73609l3.24742,-20.18255a6.76798,6.76798 0 0 1 13.38422,2.15483l-1.79063,11.32044l-0.03035,0z" class="cls-2"/>
   <path fill="#f5ac31" fill-rule="evenodd" d="m362.07794,170.41079a92.29345,92.29345 0 0 1 10.86519,8.16407a95.17668,95.17668 0 0 1 29.77306,47.49729a128.5917,128.5917 0 0 1 0.39455,61.5492a136.57367,136.57367 0 0 1 -52.47464,81.61036a140.03354,140.03354 0 0 1 -84.97917,26.58634a114.38804,114.38804 0 0 0 20.6985,-18.36157a227.86559,227.86559 0 0 0 30.34971,-44.09812c14.29471,-27.31473 23.33892,-59.33367 18.72577,-88.01415c-3.97581,-24.85641 -17.45108,-46.95099 -45.19071,-61.76165l0,0a77.02755,77.02755 0 0 0 -28.19488,-8.61932a82.6726,82.6726 0 0 1 13.11107,-8.01232a107.22551,107.22551 0 0 1 50.28946,-10.0761a89.50128,89.50128 0 0 1 36.63209,13.53597z" class="cls-3"/>
   <path fill="#537918" fill-rule="evenodd" d="m344.05022,155.90363c37.11769,-9.86365 46.2226,-14.65891 84.64533,-12.13988c-36.69279,9.80295 -46.61715,12.13988 -84.64533,12.13988z" class="cls-4"/>
   <path fill="#7db820" fill-rule="evenodd" d="m154.15211,179.8799c11.62394,1.42644 24.27976,-1.27469 37.63363,-8.46757l2.57972,-13.14142c-14.68926,-25.949 -39.54567,-39.36357 -80.45707,-33.11153l-16.08534,1.69958c11.77569,24.43151 26.28284,49.34862 56.26835,53.02094l0.0607,0z" class="cls-5"/>
   <path fill="#537918" fill-rule="evenodd" d="m116.51848,135.66038c26.73809,9.25666 44.06777,12.92897 66.52655,30.34971c-26.46494,-8.71037 -43.27868,-14.41611 -66.52655,-30.34971z" class="cls-4"/>
   <path fill="#543429" fill-rule="evenodd" d="m190.45036,174.6901l0.15175,0a118.1514,118.1514 0 0 0 -1.03189,17.36003l14.23401,0.27315a96.17822,96.17822 0 0 1 4.49176,-31.80649a74.14433,74.14433 0 0 1 20.4557,-31.74579a7.10183,7.10183 0 1 0 -9.59051,-10.4403a88.01415,88.01415 0 0 0 -24.27976,37.78538c-0.63734,1.94238 -1.24434,3.94546 -1.76028,6.06994l0,0l-2.48868,12.74688l-0.1821,-0.2428z" class="cls-6"/>
   <path fill="#d3141b" fill-rule="evenodd" d="m171.23899,188.28677c-76.02601,-23.88522 -118.03,63.55228 -78.57539,132.81031c11.80604,20.72885 26.10075,42.09504 48.25603,61.4885c21.24479,15.17485 39.66706,13.02002 56.81465,3.67231c13.65737,6.46449 28.07348,9.10491 43.58218,3.21707c22.82298,-8.55862 46.0405,-42.48959 56.99675,-63.30949c23.88522,-45.73701 32.01894,-104.37264 -21.24479,-132.96206c-14.74996,-7.83022 -32.92943,-9.98505 -55.96486,-4.91665a84.97917,84.97917 0 0 1 -49.86457,0z" class="cls-7"/>
   <path fill="#fff" fill-rule="evenodd" d="m115.54729,293.69129a5.40225,5.40225 0 0 1 6.82868,3.39917a85.40407,85.40407 0 0 0 13.26282,24.76536a125.70848,125.70848 0 0 0 20.48605,20.6985a5.40225,5.40225 0 1 1 -6.82868,8.37652a133.11381,133.11381 0 0 1 -22.21598,-22.51948a96.36031,96.36031 0 0 1 -14.93205,-27.89138a5.40225,5.40225 0 0 1 3.39917,-6.82868z" class="cls-8"/>
  </g>
 </g>
</svg>